<svg width="46" height="51" viewBox="0 0 46 51" fill="none" xmlns="http://www.w3.org/2000/svg">
<path fill-rule="evenodd" clip-rule="evenodd" d="M12.6667 0C13.1971 0 13.7058 0.210713 14.0809 0.585786C14.456 0.960859 14.6667 1.46957 14.6667 2V5.33333H26.6667V2C26.6667 1.46957 26.8774 0.960859 27.2525 0.585786C27.6275 0.210713 28.1362 0 28.6667 0C29.1971 0 29.7058 0.210713 30.0809 0.585786C30.456 0.960859 30.6667 1.46957 30.6667 2V5.33333H34C35.9449 5.33333 37.8102 6.10595 39.1855 7.48122C40.5607 8.85648 41.3333 10.7217 41.3333 12.6667V22C41.3333 22.5304 41.1226 23.0391 40.7475 23.4142C40.3725 23.7893 39.8638 24 39.3333 24H4V42C4 43.84 5.49333 45.3333 7.33333 45.3333H18C18.5304 45.3333 19.0391 45.544 19.4142 45.9191C19.7893 46.2942 20 46.8029 20 47.3333C20 47.8638 19.7893 48.3725 19.4142 48.7475C19.0391 49.1226 18.5304 49.3333 18 49.3333H7.33333C5.38841 49.3333 3.52315 48.5607 2.14788 47.1855C0.772616 45.8102 0 43.9449 0 42V12.6667C0 10.7217 0.772616 8.85648 2.14788 7.48122C3.52315 6.10595 5.38841 5.33333 7.33333 5.33333H10.6667V2C10.6667 1.46957 10.8774 0.960859 11.2525 0.585786C11.6275 0.210713 12.1362 0 12.6667 0ZM26.6667 9.33333V12.6667C26.6667 13.1971 26.8774 13.7058 27.2525 14.0809C27.6275 14.456 28.1362 14.6667 28.6667 14.6667C29.1971 14.6667 29.7058 14.456 30.0809 14.0809C30.456 13.7058 30.6667 13.1971 30.6667 12.6667V9.33333H34C35.84 9.33333 37.3333 10.8267 37.3333 12.6667V20H4V12.6667C4 10.8267 5.49333 9.33333 7.33333 9.33333H10.6667V12.6667C10.6667 13.1971 10.8774 13.7058 11.2525 14.0809C11.6275 14.456 12.1362 14.6667 12.6667 14.6667C13.1971 14.6667 13.7058 14.456 14.0809 14.0809C14.456 13.7058 14.6667 13.1971 14.6667 12.6667V9.33333H26.6667ZM33.3333 30.6667C31.2116 30.6667 29.1768 31.5095 27.6765 33.0098C26.1762 34.5101 25.3333 36.5449 25.3333 38.6667C25.3333 40.7884 26.1762 42.8232 27.6765 44.3235C29.1768 45.8238 31.2116 46.6667 33.3333 46.6667C35.4551 46.6667 37.4899 45.8238 38.9902 44.3235C40.4905 42.8232 41.3333 40.7884 41.3333 38.6667C41.3333 36.5449 40.4905 34.5101 38.9902 33.0098C37.4899 31.5095 35.4551 30.6667 33.3333 30.6667ZM21.3333 38.6667C21.3333 35.4841 22.5976 32.4318 24.8481 30.1814C27.0985 27.931 30.1507 26.6667 33.3333 26.6667C36.5159 26.6667 39.5682 27.931 41.8186 30.1814C44.0691 32.4318 45.3333 35.4841 45.3333 38.6667C45.3333 41.8493 44.0691 44.9015 41.8186 47.1519C39.5682 49.4024 36.5159 50.6667 33.3333 50.6667C30.1507 50.6667 27.0985 49.4024 24.8481 47.1519C22.5976 44.9015 21.3333 41.8493 21.3333 38.6667ZM34.6667 35.3333C34.6667 34.8029 34.456 34.2942 34.0809 33.9191C33.7058 33.544 33.1971 33.3333 32.6667 33.3333C32.1362 33.3333 31.6275 33.544 31.2525 33.9191C30.8774 34.2942 30.6667 34.8029 30.6667 35.3333V40.6667C30.6667 41.7707 31.5627 42.6667 32.6667 42.6667H35.3333C35.8638 42.6667 36.3725 42.456 36.7475 42.0809C37.1226 41.7058 37.3333 41.1971 37.3333 40.6667C37.3333 40.1362 37.1226 39.6275 36.7475 39.2525C36.3725 38.8774 35.8638 38.6667 35.3333 38.6667H34.6667V35.3333Z" fill="#2F71E5"/>
</svg>
